<?xml version="1.0" encoding="utf-8"?>
<!-- Generator: Adobe Illustrator 18.0.0, SVG Export Plug-In . SVG Version: 6.00 Build 0)  -->
<!DOCTYPE svg PUBLIC "-//W3C//DTD SVG 1.1//EN" "http://www.w3.org/Graphics/SVG/1.1/DTD/svg11.dtd">
<svg version="1.1" id="Layer_1" xmlns="http://www.w3.org/2000/svg" xmlns:xlink="http://www.w3.org/1999/xlink" x="0px" y="0px"
	 viewBox="0 0 230.2 54.4" enable-background="new 0 0 230.2 54.4" xml:space="preserve">
<g>
	<path fill="#F16B6F" d="M41,8.4h-0.3c0,0-0.1,0-0.1,0c-1.2,0-2.8,1.4-3.5,2.3c-2.2,2.8-4,6.5-5.7,9.7C30,23,28.7,25.4,27,27.8
		c-1.7,2.4-3.4,4.1-5.7,5.8c-3.8,2.9-9.1,5.1-13.9,5.1c-2.5,0-7.3-0.6-7.3-4c0-1.6,1.1-2.8,2.7-2.8c1,0,1.7,0.2,1.7,1.3
		c0,1.6-1.4,0.6-1.4,2.1c0,2,2.7,2.8,4.3,2.8c3.4,0,6.5-1.6,9.1-3.8c3.7-3.2,7-8.5,9.6-12.7c1.5-2.4,2.9-4.9,4.7-7.1
		c1.6-1.9,3.2-3.6,5.3-5c1.2-0.8,3.2-1.7,4.7-1.7c0.2,0,0.5,0,0.5,0.3C41.2,8.3,41.1,8.4,41,8.4z M35.8,21.6h-0.6
		c-0.8,0-2-0.2-2-0.8c0-0.1,0.1-0.2,0.2-0.2c0.7,0,1.4,0.4,2.2,0.4c1.6,0,3.8-1.2,5-2.3c1.8-1.7,3.2-4.5,3.2-7c0-5.4-4.3-7.2-9-7.2
		c-1.1,0-2.1,0.1-3.3,0.2c-5.6,0.8-12.1,4.2-15.3,9c-1,1.6-1.9,3.4-1.9,5.4c0,2.5,1.7,4,4.1,4c1.7,0,4.6-1,5.8-2.3
		c0.2-0.3,0.5-0.5,0.9-0.7l0,0c0,0,0.1,0,0.2,0.1c0,0.4-0.5,0.7-0.7,1c-0.6,0.5-1.1,1-1.7,1.5c-1.5,1.2-5.2,2.6-7.1,2.6
		c-2.8,0-4.9-1.7-4.9-4.7c0-4.4,3.5-8,6.7-10.6c5.2-4,11.7-6.3,18.3-6.3c5,0,11.4,1.9,11.4,7.9C47.1,17.7,41.6,21.6,35.8,21.6z"/>
	<path fill="#F16B6F" d="M51,31.9c-2.6,2.9-5.7,6-9.9,6c-2.8,0-4.5-1.2-4.5-4.1c0-5.9,9.2-13.2,14.8-13.2c1.1,0,2.4,0.2,2.4,1.6
		c0,3.9-9.1,7.1-12,7.7c-0.7,1.3-1.6,2.7-1.6,4.3c0,1.6,1,2.3,2.6,2.3c3.1,0,5.8-2.7,7.7-4.8c0.8-0.9,2-2.1,2.6-3.1
		c0.1-0.2,0.3-0.7,0.6-0.7c0.1,0,0.2,0,0.2,0.1C54,28.7,51.5,31.2,51,31.9z M50.6,21.2c-1.2,0-2.4,1.4-3.3,2.1
		c-2.1,2-3.6,3.6-5.2,5.9c2.3-0.4,5-1.4,6.8-2.9c1-0.8,2.8-2.8,2.8-4.2C51.7,21.5,51.2,21.2,50.6,21.2z"/>
	<path fill="#F16B6F" d="M59.7,35.6c-1.2,1.1-2.5,2.1-4.3,2.1c-1.6,0-3-0.8-3-2.6c0-2.6,2.8-5.5,4.5-7.3c1.4-1.5,2.8-2.9,4.5-4.1
		c-0.6,0.1-1.3,0.4-2,0.4c-0.8,0-1.2-0.2-1.9-0.8c-1.4,1.5-2.6,3-3.8,4.8c-0.1,0.1-0.3,0.4-0.5,0.4c-0.1,0-0.2,0-0.2-0.2
		c0-0.3,0.1-0.3,0.3-0.5c0.3-0.3,0.5-0.8,0.8-1.2c0.3-0.5,0.7-1.1,1.1-1.6c1-1.4,1.9-2.8,2.8-4.4c1,0.9,1.6,1.1,2.9,1.1
		c1.3,0,2.9-0.5,4.2-0.8c-2.7,3-5.1,6.1-7.3,9.5c-0.7,1-1.6,2.3-1.6,3.6c0,0.8,0.2,1.6,1.2,1.6c1.6,0,4.1-2.8,5.2-3.9
		c0.6-0.6,2.3-2.4,2.7-3.2c0.1-0.2,0.3-0.6,0.5-0.6c0.1,0,0.2,0,0.2,0.2C66.4,28.8,60.8,34.6,59.7,35.6z"/>
	<path fill="#F16B6F" d="M90.4,8.2c0,0-0.1-0.1-0.1-0.1V7.9c0-0.3,0.3-0.5,0.3-0.9c0-0.8-0.6-1.3-1.4-1.3c-1.9,0-3.8,1.5-5.1,2.9
		c-3.4,3.6-6.1,8.3-8.7,12.4h5.4l-0.3,0.7H75c-3.3,5-6.4,9.9-9.8,14.8c-2.1,3-4.1,6.2-7,8.5c-2.4,2-6.6,3.9-9.8,3.9h-1.2
		c-0.4,0-0.8,0-1.2-0.1c-1.2-0.1-3.3-0.8-3.3-2.4c0-1,1-1.9,2-1.9c0.5,0,1.2,0.2,1.2,0.9s-0.7,0.7-0.7,1.4c0,1.3,2.2,1.6,3.2,1.6
		c2,0,4-1.1,5.6-2.3c2.3-1.9,3.9-4.3,5.5-6.8c1.8-2.9,3.7-5.8,5.6-8.6c2-3,4-6,6-9.1h-3.7l0.3-0.7h3.9c3.3-5.2,6.4-10,11.6-13.4
		c2.1-1.4,4.9-2.8,7.5-2.8c0.6,0,2.3,0.1,2.3,1C92.8,6.8,91.4,8.2,90.4,8.2z"/>
	<path fill="#F16B6F" d="M92.8,31.9C91,34,87.8,38,84.7,38c-1.6,0-3-0.9-3-2.6c0-1,0.6-2.4,1.1-3.3c-1.9,2-5.3,5.9-8.2,5.9
		c-1.7,0-3.1-0.9-3.1-2.7c0-2,2.2-4.7,3.2-6.1c1.2-1.9,2.5-3.7,3.8-5.6c0.3-0.5,0.7-1.1,0.7-1.9c0-0.2-0.1-0.4-0.1-0.7h4.1v0.5
		c0,0.7-0.4,1.8-0.8,2.4c-1.3,1.9-2.6,3.8-3.9,5.8c-0.8,1-2.9,4.1-2.9,5.6c0,0.7,0.5,1.2,1.3,1.2c1.1,0,3.1-2,3.9-2.8
		c2-1.7,2.4-2.3,3.9-4.5l3.9-5.8c0.3-0.5,0.7-1.2,0.7-1.9c0-0.1,0-0.3-0.1-0.5h4v0.6c0,0.6-0.8,1.9-1.2,2.4
		c-1.3,1.9-2.5,3.8-3.9,5.8c-0.6,0.9-2.9,3.7-2.9,5.1c0,1,0.5,1.5,1.5,1.5c0.7,0,1.3-0.3,1.9-0.8c2-1.7,3.6-3.7,5.3-5.7
		c0.4-0.4,0.8-0.9,1.2-1.4c0.1-0.1,0.2-0.5,0.5-0.5c0.1,0,0.3,0,0.3,0.2C95.8,28.6,93.1,31.6,92.8,31.9z"/>
	<path fill="#F16B6F" d="M124.7,30.3c-1.5,1.9-3.3,3.6-5.1,5.3c-1.2,1.1-3.1,2.4-4.8,2.4c-1.5,0-3.2-0.6-3.2-2.4c0-2.9,7-9.5,7-12.5
		c0-0.6-0.3-1.1-1-1.1c-2.2,0-6.4,4.3-7.6,6.1l-6.3,9.4h-4l7.9-11.8c0.5-0.8,1.4-1.5,1.4-2.7c0-0.7-0.4-1.1-1.1-1.1
		c-2.1,0-4.3,2.4-5.8,3.6c-0.3,0.2-0.9,0.6-1.1,0.9l-7.5,11.1h-4l9.6-14.1c0.5-0.8,0.6-1.4,0.6-2.4h4.1c0,0.1,0,0.3,0,0.4
		c0,1.2-1.8,3.2-2.3,4.1c2.1-2.1,5.3-4.9,8.3-4.9c1.5,0,2.3,0.7,2.3,2.3c0,1.1-0.5,2.1-1,3.1c2-2.2,5.4-5.4,8.6-5.4
		c1.6,0,2.8,0.7,2.8,2.5c0,0.6-0.2,1.2-0.6,1.8c-1.1,1.6-2.1,3.2-3.2,4.8c-0.8,1.2-1.6,2.5-2.4,3.7c-0.3,0.5-0.8,1.3-0.8,1.9
		c0,0.6,0.5,1,1.1,1c1,0,2-0.6,2.7-1.3c1.3-1.3,5.5-5.1,6.2-6.6c0.1-0.2,0.2-0.6,0.5-0.6c0.1,0,0.2,0.1,0.2,0.2
		C126.3,28.6,125,29.9,124.7,30.3z"/>
	<path fill="#F16B6F" d="M137.5,31.9c-2.6,2.9-5.7,6-9.9,6c-2.8,0-4.5-1.2-4.5-4.1c0-5.9,9.2-13.2,14.8-13.2c1.1,0,2.4,0.2,2.4,1.6
		c0,3.9-9.1,7.1-12,7.7c-0.7,1.3-1.6,2.7-1.6,4.3c0,1.6,1,2.3,2.6,2.3c3.1,0,5.8-2.7,7.7-4.8c0.8-0.9,2-2.1,2.6-3.1
		c0.1-0.2,0.3-0.7,0.6-0.7c0.1,0,0.2,0,0.2,0.1C140.5,28.7,138.1,31.2,137.5,31.9z M137.1,21.2c-1.2,0-2.4,1.4-3.3,2.1
		c-2.1,2-3.6,3.6-5.2,5.9c2.3-0.4,5-1.4,6.8-2.9c1-0.8,2.8-2.8,2.8-4.2C138.3,21.5,137.7,21.2,137.1,21.2z"/>
	<path fill="#F16B6F" d="M188.6,7.9c-0.8,0.1-1.5,0.5-2.3,1.1c-2.4,1.6-4.3,4.6-5.8,7.1c-1.5,2.5-3,5.1-4.6,7.6
		c-2.6,4.2-5.4,8.7-9.5,11.6c-1.6,1.2-4.3,2.5-6.2,3.2c-1.9,0.6-4.5,1-6.5,1c-2.2,0-6.7-0.6-6.7-3.8c0-1.3,1-2.3,2.3-2.3
		c0.9,0,1.8,0.5,1.8,1.5c0,1.2-1,0.6-1,1.9c0,1.6,2.5,2.1,3.7,2.1c2.1,0,4.1-0.7,5.9-1.7c1.9-1.1,3.6-2.5,5-4.1
		c3-3.7,5.5-7.8,8.1-11.8c2.9-4.6,5.9-9,10.8-11.8c1.3-0.7,3.8-1.9,5.3-1.9c0.1,0,0.6,0,0.6,0.2C189.4,7.9,188.8,7.9,188.6,7.9z
		 M185.6,20.1c-1.2,0.3-2.5,0.5-3.7,0.9c1.9,1,2.8,1.9,2.8,4.2c0,3.2-3.4,6.3-3.4,9.3c0,0.8,0.4,1.6,1.3,1.6c1.3,0,2.6-0.8,3.6-1.7
		c1.3-1.2,4.4-4,5.2-5.6c0.1-0.2,0.4-0.9,0.8-0.9c0.1,0,0.1,0,0.1,0.2c0,0.3-0.3,0.7-0.5,0.9c-0.7,0.8-1.3,1.7-2.1,2.6
		c-1.8,2.4-5.9,6.4-9.2,6.4c-2.1,0-3.6-1-3.6-3.2c0-4.5,5.2-9,5.2-11.8c0-0.9-0.5-1.9-1.6-1.9c-0.2,0-0.3,0-0.5,0
		c-0.2,0-0.5,0-0.5-0.3c0-0.2,0.2-0.3,0.5-0.3h0.8c2.2,0,5.1-1.2,6.9-2.4c2.6-1.7,4.8-4.5,4.8-7.8c0-4.8-5.2-5.8-8.9-5.8
		c-2.7,0-5.5,0.4-8.1,1.3c-5.5,1.7-13,6.4-13,13c0,2.3,1.5,3.9,3.8,3.9c1.4,0,3.2-0.9,4.2-1.8c0.1,0,0.6-0.6,0.8-0.7
		c0,0,0,0.1,0,0.1c0,0.2-0.5,0.7-0.6,0.9c-0.4,0.4-0.9,0.9-1.4,1.3c-1.4,1.2-3.9,2.4-5.8,2.4c-2.8,0-4.4-2.3-4.4-4.9
		c0-2.7,2.3-6.3,4.2-8.2c5.4-5.5,14.3-8.1,21.8-8.1c4.4,0,10.8,1.2,10.8,6.8C195.9,15.7,189.8,19.1,185.6,20.1z"/>
	<path fill="#F16B6F" d="M197.6,33.7c-1.4,1.5-4.2,4.3-6.5,4.3c-1.6,0-3.1-0.8-3.1-2.6c0-1.4,0.9-3.1,1.7-4.3l5-7.4
		c0.3-0.4,0.8-1.2,0.8-1.8c0-0.3-0.1-0.6-0.1-0.8h4.2c0,0.1,0,0.4,0,0.7c0,0.5-0.6,1.5-1,2l-5.8,8.5c-0.6,0.9-1.3,2-1.3,3.2
		c0,0.5,0.1,1.2,0.8,1.2c2,0,6.7-5.1,8-6.5c0.3-0.4,1-1.1,1.2-1.5c0.1-0.2,0.2-0.6,0.5-0.6c0.1,0,0.1,0,0.1,0.1
		C202.3,29.1,198.3,32.9,197.6,33.7z M202.6,12.7c-1.2,0-1.8-0.7-1.8-1.9c0-1.6,2.3-3.4,3.9-3.4c0.9,0,1.5,0.5,1.5,1.5
		C206.2,10.6,204.4,12.7,202.6,12.7z"/>
	<path fill="#F16B6F" d="M209.9,28.3c0,5.2-3.9,9.6-9.1,9.6h-1.6c-0.8,0-2.7-0.2-2.7-1.2c0-0.6,0.9-2,1.5-2c0.1,0,0.2,0.1,0.2,0.2
		c0,0.4-0.1,0.8-0.1,1.3c0,0.6,0.8,1.2,1.4,1.2c0.9,0,2.4-0.7,3-1.3c2.5-2.3,4-7,4-10.4c0-1.2,0-2.4-0.2-3.6
		c-0.2,0.3-3.7,6.3-4.4,6.3c-0.1,0-0.1,0-0.1-0.1c0-0.2,0.2-0.6,0.4-0.7c1.7-2.5,2.6-3.6,3.8-6.4c1.6,0,2.8-0.1,4.4-0.5
		C209.9,23.2,209.9,25.6,209.9,28.3z"/>
	<path fill="#F16B6F" d="M226.4,31.9c-2.6,2.9-5.7,6-9.9,6c-2.8,0-4.5-1.2-4.5-4.1c0-5.9,9.2-13.2,14.8-13.2c1.1,0,2.4,0.2,2.4,1.6
		c0,3.9-9.1,7.1-12,7.7c-0.7,1.3-1.6,2.7-1.6,4.3c0,1.6,1,2.3,2.6,2.3c3.1,0,5.8-2.7,7.7-4.8c0.8-0.9,2-2.1,2.6-3.1
		c0.1-0.2,0.3-0.7,0.6-0.7c0.1,0,0.2,0,0.2,0.1C229.4,28.7,226.9,31.2,226.4,31.9z M226,21.2c-1.2,0-2.4,1.4-3.3,2.1
		c-2.1,2-3.6,3.6-5.2,5.9c2.3-0.4,5-1.4,6.8-2.9c1-0.8,2.8-2.8,2.8-4.2C227.1,21.5,226.6,21.2,226,21.2z"/>
</g>
<g>
	<path fill="#363636" d="M68.3,47.2l1.9,5.3l1.9-5.3h2v7.3h-1.5v-2l0.2-3.5l-2,5.5h-1l-2-5.5l0.2,3.5v2h-1.5v-7.3H68.3z"/>
	<path fill="#363636" d="M82.8,50.5l1.5-3.3H86l-2.4,4.7v2.7H82v-2.7l-2.4-4.7h1.7L82.8,50.5z M84.7,45.3c0,0.2,0,0.4-0.1,0.5
		c-0.1,0.2-0.1,0.3-0.2,0.4c-0.1,0.1-0.2,0.2-0.4,0.3c-0.1,0.1-0.3,0.1-0.5,0.1c-0.2,0-0.3,0-0.4-0.1c-0.1,0-0.2-0.1-0.3-0.1
		c-0.1-0.1-0.2-0.1-0.3-0.1c-0.1,0-0.2-0.1-0.3-0.1c-0.1,0-0.2,0-0.3,0.1c-0.1,0.1-0.1,0.2-0.1,0.4l-0.8-0.1c0-0.2,0-0.4,0.1-0.5
		c0.1-0.2,0.1-0.3,0.2-0.4c0.1-0.1,0.2-0.2,0.4-0.3c0.1-0.1,0.3-0.1,0.5-0.1c0.1,0,0.3,0,0.4,0.1c0.1,0,0.2,0.1,0.3,0.1
		c0.1,0.1,0.2,0.1,0.3,0.1c0.1,0,0.2,0.1,0.4,0.1c0.1,0,0.2,0,0.3-0.1c0.1-0.1,0.1-0.2,0.1-0.4L84.7,45.3z"/>
	<path fill="#363636" d="M100.8,51.9v2.6h-1.5v-7.3h2.9c0.4,0,0.8,0.1,1.2,0.2c0.3,0.1,0.6,0.3,0.9,0.5c0.2,0.2,0.4,0.5,0.5,0.8
		c0.1,0.3,0.2,0.6,0.2,1c0,0.4-0.1,0.7-0.2,1c-0.1,0.3-0.3,0.5-0.5,0.7c-0.2,0.2-0.5,0.4-0.9,0.5c-0.3,0.1-0.7,0.2-1.2,0.2H100.8z
		 M100.8,50.7h1.4c0.2,0,0.4,0,0.6-0.1c0.2-0.1,0.3-0.1,0.4-0.2c0.1-0.1,0.2-0.2,0.2-0.3c0-0.1,0.1-0.3,0.1-0.4s0-0.3-0.1-0.5
		c0-0.1-0.1-0.3-0.2-0.4c-0.1-0.1-0.2-0.2-0.4-0.3c-0.2-0.1-0.3-0.1-0.6-0.1h-1.4V50.7z"/>
	<path fill="#363636" d="M117,54.5h-1.5v-3.1h-2.9v3.1H111v-7.3h1.5v3h2.9v-3h1.5V54.5z"/>
	<path fill="#363636" d="M127.6,53H125l-0.5,1.5h-1.6l2.7-7.3h1.4l2.7,7.3h-1.6L127.6,53z M128.2,46.9h-1l-0.8-0.7l-0.8,0.7h-1
		l1.4-1.2h0.9L128.2,46.9z M125.4,51.8h1.8l-0.9-2.7L125.4,51.8z M127.7,46.2l-0.1-0.6c0.2,0,0.4,0,0.5-0.1c0.1,0,0.1-0.1,0.1-0.2
		c0-0.1,0-0.1,0-0.1c0,0-0.1-0.1-0.1-0.1c-0.1,0-0.1,0-0.2-0.1c-0.1,0-0.2,0-0.2,0l0-0.6c0.5,0,0.9,0.1,1.1,0.2
		c0.2,0.1,0.4,0.3,0.4,0.6c0,0.1,0,0.2-0.1,0.3c0,0.1-0.1,0.1-0.1,0.2c-0.1,0.1-0.1,0.1-0.2,0.1c-0.1,0-0.2,0-0.2,0.1l0,0.3H127.7z"
		/>
	<path fill="#363636" d="M137.5,47.2l1.9,5.3l1.9-5.3h2v7.3h-1.5v-2l0.2-3.5l-2,5.5h-1l-2-5.5l0.2,3.5v2h-1.5v-7.3H137.5z"/>
	<path fill="#363636" d="M163,52.1c0,0.4-0.1,0.7-0.3,1c-0.1,0.3-0.3,0.6-0.6,0.8c-0.2,0.2-0.6,0.4-0.9,0.5
		c-0.4,0.1-0.8,0.2-1.2,0.2c-0.5,0-0.9-0.1-1.3-0.2c-0.4-0.2-0.7-0.4-1-0.7c-0.3-0.3-0.5-0.7-0.6-1.1c-0.1-0.4-0.2-0.9-0.2-1.5v-0.5
		c0-0.5,0.1-1,0.2-1.5c0.1-0.4,0.3-0.8,0.6-1.1c0.3-0.3,0.6-0.5,1-0.7s0.8-0.2,1.3-0.2c0.5,0,0.9,0.1,1.2,0.2
		c0.4,0.1,0.6,0.3,0.9,0.5c0.2,0.2,0.4,0.5,0.6,0.8c0.1,0.3,0.2,0.7,0.3,1h-1.5c0-0.2-0.1-0.4-0.1-0.6c-0.1-0.2-0.1-0.3-0.3-0.4
		c-0.1-0.1-0.3-0.2-0.4-0.3c-0.2-0.1-0.4-0.1-0.6-0.1c-0.5,0-0.9,0.2-1.1,0.6c-0.3,0.4-0.4,0.9-0.4,1.7v0.5c0,0.4,0,0.7,0.1,1
		c0.1,0.3,0.1,0.5,0.3,0.7c0.1,0.2,0.3,0.3,0.5,0.4c0.2,0.1,0.4,0.1,0.7,0.1c0.2,0,0.4,0,0.6-0.1c0.2-0.1,0.3-0.1,0.4-0.2
		c0.1-0.1,0.2-0.2,0.3-0.4c0.1-0.2,0.1-0.4,0.1-0.6H163z"/>
	<path fill="#363636" d="M173.2,53h-2.7l-0.5,1.5h-1.6l2.7-7.3h1.4l2.7,7.3h-1.6L173.2,53z M171,51.8h1.8l-0.9-2.7L171,51.8z"/>
	<path fill="#363636" d="M187,51c0,0.6-0.1,1.1-0.2,1.5c-0.2,0.4-0.4,0.8-0.6,1.1c-0.3,0.3-0.6,0.5-1,0.7c-0.4,0.2-0.8,0.3-1.3,0.3
		s-0.9-0.1-1.3-0.3c-0.4-0.2-0.7-0.4-1-0.7c-0.3-0.3-0.5-0.7-0.6-1.1c-0.2-0.4-0.2-0.9-0.2-1.5v-0.3c0-0.6,0.1-1.1,0.2-1.5
		c0.2-0.4,0.4-0.8,0.6-1.1c0.3-0.3,0.6-0.6,1-0.7c0.4-0.2,0.8-0.3,1.3-0.3s0.9,0.1,1.3,0.3c0.4,0.2,0.7,0.4,1,0.7
		c0.3,0.3,0.5,0.7,0.6,1.1c0.2,0.4,0.2,1,0.2,1.5V51z M185.5,50.7c0-0.8-0.1-1.4-0.4-1.8c-0.3-0.4-0.7-0.6-1.2-0.6
		c-0.5,0-0.9,0.2-1.2,0.6c-0.3,0.4-0.4,1-0.4,1.8V51c0,0.4,0,0.7,0.1,1c0.1,0.3,0.2,0.5,0.3,0.7c0.1,0.2,0.3,0.4,0.5,0.5
		c0.2,0.1,0.4,0.2,0.7,0.2c0.5,0,0.9-0.2,1.2-0.6c0.3-0.4,0.4-1,0.4-1.8V50.7z"/>
	<path fill="#363636" d="M206.5,52.1c0,0.4-0.1,0.7-0.3,1c-0.1,0.3-0.3,0.6-0.6,0.8c-0.2,0.2-0.6,0.4-0.9,0.5
		c-0.4,0.1-0.8,0.2-1.2,0.2c-0.5,0-0.9-0.1-1.3-0.2c-0.4-0.2-0.7-0.4-1-0.7c-0.3-0.3-0.5-0.7-0.6-1.1c-0.1-0.4-0.2-0.9-0.2-1.5v-0.5
		c0-0.5,0.1-1,0.2-1.5c0.1-0.4,0.3-0.8,0.6-1.1c0.3-0.3,0.6-0.5,1-0.7s0.8-0.2,1.3-0.2c0.5,0,0.9,0.1,1.2,0.2
		c0.4,0.1,0.6,0.3,0.9,0.5c0.2,0.2,0.4,0.5,0.6,0.8c0.1,0.3,0.2,0.7,0.3,1H205c0-0.2-0.1-0.4-0.1-0.6c-0.1-0.2-0.1-0.3-0.3-0.4
		c-0.1-0.1-0.3-0.2-0.4-0.3c-0.2-0.1-0.4-0.1-0.6-0.1c-0.5,0-0.9,0.2-1.1,0.6c-0.3,0.4-0.4,0.9-0.4,1.7v0.5c0,0.4,0,0.7,0.1,1
		c0.1,0.3,0.1,0.5,0.3,0.7c0.1,0.2,0.3,0.3,0.5,0.4c0.2,0.1,0.4,0.1,0.7,0.1c0.2,0,0.4,0,0.6-0.1c0.2-0.1,0.3-0.1,0.4-0.2
		c0.1-0.1,0.2-0.2,0.3-0.4c0.1-0.2,0.1-0.4,0.1-0.6H206.5z"/>
	<path fill="#363636" d="M216.7,53h-2.7l-0.5,1.5H212l2.7-7.3h1.4l2.7,7.3h-1.6L216.7,53z M215,45.7h0.8l1.4,1.2h-1.1l-0.8-0.6
		l-0.8,0.6h-1.1L215,45.7z M214.5,51.8h1.8l-0.9-2.7L214.5,51.8z M217.7,44.8h1.2l-1.1,1.4h-0.8L217.7,44.8z"/>
	<path fill="#363636" d="M226.1,51.9v2.6h-1.5v-7.3h2.9c0.4,0,0.8,0.1,1.2,0.2c0.3,0.1,0.6,0.3,0.9,0.5c0.2,0.2,0.4,0.5,0.5,0.8
		c0.1,0.3,0.2,0.6,0.2,1c0,0.4-0.1,0.7-0.2,1c-0.1,0.3-0.3,0.5-0.5,0.7c-0.2,0.2-0.5,0.4-0.9,0.5c-0.3,0.1-0.7,0.2-1.2,0.2H226.1z
		 M226.1,50.7h1.4c0.2,0,0.4,0,0.6-0.1c0.2-0.1,0.3-0.1,0.4-0.2c0.1-0.1,0.2-0.2,0.2-0.3s0.1-0.3,0.1-0.4s0-0.3-0.1-0.5
		c0-0.1-0.1-0.3-0.2-0.4c-0.1-0.1-0.2-0.2-0.4-0.3c-0.2-0.1-0.3-0.1-0.6-0.1h-1.4V50.7z"/>
</g>
</svg>
